<?xml version="1.0" encoding="utf-8"?>
<!-- Generator: Adobe Illustrator 26.1.0, SVG Export Plug-In . SVG Version: 6.00 Build 0)  -->
<svg version="1.1" id="Calque_1" xmlns="http://www.w3.org/2000/svg" xmlns:xlink="http://www.w3.org/1999/xlink" x="0px" y="0px"
	 viewBox="0 0 779.3 104.34" style="enable-background:new 0 0 779.3 104.34;" xml:space="preserve">
<path d="M207.08,104.34c-13.04,0-23.78-3-32.18-12.12c-8.4-9.12-12.6-21.45-12.6-37.01c0-15.12,4.06-27.83,12.19-38.13
	c8.13-10.3,20.22-15.45,36.27-15.45c12.05,0,21.76,3.06,29.12,9.19c7.36,6.13,12.13,14.82,14.3,26.08l-29.71-0.1
	C223,26.28,218,24.08,210.25,24.08c-10.18,0-15.27,9.68-15.27,29.05c0,11.71,1.63,19.43,4.89,23.16c3.26,3.73,7.21,5.59,11.86,5.59
	c3.75,0,6.95-1.14,9.6-3.41c2.64-2.27,3.99-5.38,4.04-9.34h-16.75V47.65h45.57v52.49c0,2.32-1.88,4.19-4.19,4.19H207.08z"/>
<path d="M315.03,28.97v25.19c-2.08-0.49-3.93-0.74-5.56-0.74c-9.78,0-14.67,5.46-14.67,16.38v34.53h-28.31V28.97H315.03"/>
<path d="M350.9,0v23.42h-29.57V0H350.9z M350.9,28.97v75.36h-29.57V28.97H350.9z"/>
<path d="M413.16,28.97c5.48,0,9.51-0.51,13.29,1.59c3.78,2.1,6.48,4.82,8.11,8.15c1.63,3.33,2.45,9.13,2.45,17.38v48.24h-29.57
	V56.91c0-3.9-0.61-6.4-1.82-7.48c-1.21-1.09-2.73-1.63-4.56-1.63c-5.39,0-8.08,3.75-8.08,11.26v45.28h-29.57V28.97h27.42"/>
<path d="M476.14,104.34c-8.7,0-16.78-1.84-22.19-8.63c-5.41-6.79-8.11-16.66-8.11-29.6c0-12.1,2.72-21.71,8.15-28.83
	c5.43-7.11,12.62-10.67,21.56-10.67c7.46,0,11.75,0.46,18.45,0.59v-24h29.12v101.15H495.4 M493.99,55.87
	c0-6.77-2.79-10.15-8.37-10.15c-3.9,0-6.46,2.15-7.67,6.45c-1.21,4.3-1.82,9.56-1.82,15.78c0,12.2,3.11,18.3,9.34,18.3
	c2.37,0,4.38-0.96,6.04-2.89c1.65-1.93,2.48-4.87,2.48-8.82V55.87z"/>
<path d="M558.1,67.58v36.75h-31.49V3.19h43.2c10.77,0,18.96,1.24,24.57,3.71c5.61,2.47,10.05,6.25,13.34,11.34
	c3.29,5.09,4.93,10.79,4.93,17.12c0,9.63-3.36,17.41-10.08,23.34c-6.72,5.93-15.68,8.89-26.9,8.89H558.1z M557.66,45.87h10.37
	c9.14,0,13.71-3.36,13.71-10.08c0-6.32-4.22-9.49-12.67-9.49h-11.41V45.87z"/>
<path d="M670.42,104.34L664.7,84.4h-27.1l-6.07,19.93h-25.21L637.55,3.19h32.83l31.72,101.15H670.42z M642.88,62.32h16.37
	l-8.18-29.34L642.88,62.32z"/>
<path d="M779.3,79.51v24.82h-70.92V3.19h31.05v76.33H779.3z"/>
<g>
	<path d="M96.25,0.19c-28.71,0-51.98,23.27-51.98,51.98s23.27,51.98,51.98,51.98s51.98-23.27,51.98-51.98S124.96,0.19,96.25,0.19z
		 M96.25,65.39c-7.75,0-14.02-6.28-14.02-14.02s6.28-14.02,14.02-14.02s14.02,6.28,14.02,14.02S104,65.39,96.25,65.39z"/>
	<path d="M40.44,62.14c-0.11-0.61-0.2-1.22-0.28-1.83c0-0.01-0.01-0.02-0.02-0.03c-5.38-1.46-9.44-6.7-8.5-13.23
		c0.7-4.87,4.65-8.66,9.49-9.54c0.7-0.13,0.8-0.19,1.25-0.61c0,0,0.01-0.01,0.01-0.01c4.37-10.16,9.49-20.3,19.21-27.19
		c0.5-0.35,0.34-1.13-0.25-1.29c-9.07-2.36-13.96-3.3-23.98-1.67C14.42,10.48-2.24,31.22,0.24,54.33
		c2.73,25.4,26.94,40.51,50.72,38.95c2.2-0.14,1.62-0.09,6.4-0.27c0.63-0.02,0.88-0.81,0.39-1.19
		C49.24,85.21,42.47,73.35,40.44,62.14z"/>
</g>
</svg>
