<?xml version="1.0" encoding="utf-8"?>
<!-- Generator: Adobe Illustrator 26.1.0, SVG Export Plug-In . SVG Version: 6.00 Build 0)  -->
<svg version="1.1" id="Calque_1" xmlns="http://www.w3.org/2000/svg" xmlns:xlink="http://www.w3.org/1999/xlink" x="0px" y="0px"
	 viewBox="0 0 148.6 148.8" style="enable-background:new 0 0 148.6 148.8;" xml:space="preserve">
<style type="text/css">
	.st0{fill:#FFFFFF;}
</style>
<g>
	<path class="st0" d="M96.3,24c-28.7,0-52,23.3-52,52s23.3,52,52,52s52-23.3,52-52S125.1,24,96.3,24z M96.3,89.2
		c-7.8,0-14-6.3-14-14s6.3-14,14-14s14,6.3,14,14S104.1,89.2,96.3,89.2z"/>
	<path class="st0" d="M40.5,85.9c-0.1-0.6-0.2-1.2-0.3-1.8l0,0c-5.4-1.5-9.4-6.7-8.5-13.2c0.7-4.9,4.7-8.7,9.5-9.5
		c0.7-0.1,0.8-0.2,1.2-0.6l0,0c4.4-10.2,9.5-20.3,19.2-27.2c0.5-0.4,0.3-1.1-0.2-1.3c-9.1-2.4-14-3.3-24-1.7
		C14.5,34.3-2.1,55,0.3,78.1c2.8,25.4,27,40.5,50.8,39c2.2-0.1,1.6-0.1,6.4-0.3c0.6,0,0.9-0.8,0.4-1.2C49.3,109,42.6,97.1,40.5,85.9
		z"/>
</g>
</svg>
