<?xml version="1.0" encoding="utf-8"?>
<!-- Generator: Adobe Illustrator 26.1.0, SVG Export Plug-In . SVG Version: 6.00 Build 0)  -->
<svg version="1.1" id="Calque_1" xmlns="http://www.w3.org/2000/svg" xmlns:xlink="http://www.w3.org/1999/xlink" x="0px" y="0px"
	 viewBox="0 0 779.3 104.3" style="enable-background:new 0 0 779.3 104.3;" xml:space="preserve">
<style type="text/css">
	.st0{fill:#FFFFFF;}
</style>
<path class="st0" d="M207.1,104.3c-13,0-23.8-3-32.2-12.1c-8.4-9.1-12.6-21.5-12.6-37c0-15.1,4.1-27.8,12.2-38.1
	s20.2-15.4,36.3-15.4c12.1,0,21.8,3.1,29.1,9.2s12.1,14.8,14.3,26.1l-29.7-0.1c-1.5-10.5-6.5-12.7-14.2-12.7
	c-10.2,0-15.3,9.7-15.3,29c0,11.7,1.6,19.4,4.9,23.2c3.3,3.7,7.2,5.6,11.9,5.6c3.8,0,6.9-1.1,9.6-3.4c2.6-2.3,4-5.4,4-9.3h-16.8
	V47.7h45.6v52.5c0,2.3-1.9,4.2-4.2,4.2L207.1,104.3L207.1,104.3z"/>
<path class="st0" d="M315,29v25.2c-2.1-0.5-3.9-0.7-5.6-0.7c-9.8,0-14.7,5.5-14.7,16.4v34.5h-28.3V29H315"/>
<path class="st0" d="M350.9,0v23.4h-29.6V0H350.9z M350.9,29v75.4h-29.6V29H350.9z"/>
<path class="st0" d="M413.2,29c5.5,0,9.5-0.5,13.3,1.6s6.5,4.8,8.1,8.1c1.6,3.3,2.5,9.1,2.5,17.4v48.2h-29.6V56.9
	c0-3.9-0.6-6.4-1.8-7.5c-1.2-1.1-2.7-1.6-4.6-1.6c-5.4,0-8.1,3.8-8.1,11.3v45.3h-29.6V29h27.4"/>
<path class="st0" d="M476.1,104.3c-8.7,0-16.8-1.8-22.2-8.6s-8.1-16.7-8.1-29.6c0-12.1,2.7-21.7,8.1-28.8
	c5.4-7.1,12.6-10.7,21.6-10.7c7.5,0,11.8,0.5,18.5,0.6v-24h29.1v101.2h-27.7 M494,55.9c0-6.8-2.8-10.1-8.4-10.1
	c-3.9,0-6.5,2.2-7.7,6.5c-1.2,4.3-1.8,9.6-1.8,15.8c0,12.2,3.1,18.3,9.3,18.3c2.4,0,4.4-1,6-2.9c1.6-1.9,2.5-4.9,2.5-8.8V55.9z"/>
<path class="st0" d="M558.1,67.6v36.8h-31.5V3.2h43.2c10.8,0,19,1.2,24.6,3.7s10,6.2,13.3,11.3c3.3,5.1,4.9,10.8,4.9,17.1
	c0,9.6-3.4,17.4-10.1,23.3c-6.7,5.9-15.7,8.9-26.9,8.9L558.1,67.6L558.1,67.6z M557.7,45.9H568c9.1,0,13.7-3.4,13.7-10.1
	c0-6.3-4.2-9.5-12.7-9.5h-11.4L557.7,45.9L557.7,45.9z"/>
<path class="st0" d="M670.4,104.3l-5.7-19.9h-27.1l-6.1,19.9h-25.2L637.5,3.2h32.8l31.7,101.2C702.1,104.3,670.4,104.3,670.4,104.3z
	 M642.9,62.3h16.4L651.1,33L642.9,62.3z"/>
<path class="st0" d="M779.3,79.5v24.8h-70.9V3.2h31v76.3L779.3,79.5L779.3,79.5z"/>
<g>
	<path class="st0" d="M96.2,0.2c-28.7,0-52,23.3-52,52s23.3,52,52,52s52-23.3,52-52S125,0.2,96.2,0.2z M96.2,65.4
		c-7.8,0-14-6.3-14-14s6.3-14,14-14s14,6.3,14,14S104,65.4,96.2,65.4z"/>
	<path class="st0" d="M40.4,62.1c-0.1-0.6-0.2-1.2-0.3-1.8c0,0,0,0,0,0c-5.4-1.5-9.4-6.7-8.5-13.2c0.7-4.9,4.7-8.7,9.5-9.5
		c0.7-0.1,0.8-0.2,1.2-0.6l0,0c4.4-10.2,9.5-20.3,19.2-27.2c0.5-0.4,0.3-1.1-0.2-1.3c-9.1-2.4-14-3.3-24-1.7
		C14.4,10.5-2.2,31.2,0.2,54.3C3,79.7,27.2,94.8,51,93.3c2.2-0.1,1.6-0.1,6.4-0.3c0.6,0,0.9-0.8,0.4-1.2
		C49.2,85.2,42.5,73.3,40.4,62.1z"/>
</g>
</svg>
